<?xml version="1.0" encoding="UTF-8"?><svg id="Layer_1" xmlns="http://www.w3.org/2000/svg" viewBox="0 0 240 23"><defs><style>.cls-1{fill:#fff;}</style></defs><path class="cls-1" d="M9.213,5.907l2.114,3.961-7.076,13.132H0L9.213,5.907ZM24.786,23h-4.252L12.393,7.892l-2.125-3.943L12.392.008v-.002s2.127,3.944,2.127,3.944l10.267,19.051Z"/><path class="cls-1" d="M43.476,0v17.439c-.82,1.394-1.919,2.593-3.218,3.517-1.809,1.289-4.004,2.043-6.373,2.043-1.462,0-2.859-.289-4.139-.812-1.186-.485-2.272-1.172-3.218-2.02v-6.793h3.218v5.13c1.208.755,2.625,1.191,4.139,1.191,2.601,0,4.916-1.285,6.373-3.27V0h3.218Z"/><path class="cls-1" d="M53.685,5.907l2.114,3.961-7.076,13.132h-4.251l9.213-17.093ZM69.258,23h-4.252l-8.142-15.108-2.125-3.943L56.863.008v-.002s2.127,3.944,2.127,3.944l10.267,19.051Z"/><path class="cls-1" d="M88.711.079v22.816l-3.218-3.305-11.275-11.58h0s-3.218-3.304-3.218-3.304V.033l14.493,14.884V.079h3.218ZM70.999,7.045l3.218,3.305v12.651h-3.218V7.045Z"/><path class="cls-1" d="M110.816,13.191c.534.958.839,2.069.839,3.252s-.305,2.294-.839,3.252c-1.1,1.974-3.172,3.305-5.546,3.305h-6.951c-2.376,0-4.448-1.331-5.552-3.305-.508-.912-.812-1.962-.842-3.082h3.221c.092,1.716,1.479,3.082,3.173,3.082h6.951c1.746,0,3.167-1.458,3.167-3.252s-1.42-3.252-3.167-3.252h-6.961c-1.797,0-3.42-.762-4.579-1.988-.373-.394-.698-.836-.966-1.316-.534-.958-.839-2.069-.839-3.252s.305-2.293.839-3.252c1.1-1.974,3.172-3.305,5.546-3.305h6.785c.056-.002.111-.003.166-.003s.11.001.166.003c2.306.06,4.308,1.374,5.386,3.302.001.001.001.002.002.003.507.911.81,1.96.84,3.079h-3.221c-.09-1.676-1.415-3.018-3.055-3.079h-7.069c-1.746,0-3.167,1.459-3.167,3.252,0,1.684,1.253,3.073,2.852,3.236.107-.006.215-.009.324-.009.187,0,.372.009.555.025h6.396c2.374,0,4.445,1.331,5.546,3.305Z"/><path class="cls-1" d="M148.436,13.191c.534.958.839,2.069.839,3.252s-.305,2.294-.839,3.252c-1.1,1.974-3.172,3.305-5.546,3.305h-6.951c-2.376,0-4.448-1.331-5.552-3.305-.509-.912-.812-1.962-.842-3.082h3.221c.092,1.716,1.479,3.082,3.173,3.082h6.951c1.746,0,3.167-1.458,3.167-3.252s-1.42-3.252-3.167-3.252h-6.96c-1.797,0-3.42-.762-4.58-1.988-.373-.394-.698-.836-.966-1.316-.534-.958-.839-2.069-.839-3.252s.305-2.293.839-3.252c1.1-1.974,3.172-3.305,5.546-3.305h6.785c.056-.002.11-.003.166-.003s.111.001.166.003c2.306.06,4.308,1.374,5.386,3.302.001.001.001.002.002.003.507.911.81,1.96.84,3.079h-3.221c-.09-1.676-1.415-3.018-3.055-3.079h-7.069c-1.746,0-3.167,1.459-3.167,3.252,0,1.684,1.253,3.073,2.852,3.236.108-.006.215-.009.324-.009.187,0,.372.009.555.025h6.396c2.374,0,4.445,1.331,5.546,3.305Z"/><path class="cls-1" d="M172.38.078v14.576c0,1.733-.614,3.417-1.763,4.685-.445.491-.932.943-1.456,1.348-1.871,1.452-4.198,2.312-6.724,2.312s-4.862-.864-6.734-2.32c-.526-.409-1.016-.865-1.463-1.362-1.144-1.269-1.755-2.948-1.755-4.676V.078h3.218v12.652c0,3.73,2.858,6.848,6.488,6.961.082.003.164.004.247.004.078,0,.157-.001.235-.003,3.63-.108,6.489-3.231,6.489-6.961V.078h3.218Z"/><path class="cls-1" d="M210.003,19.717v3.283h-13.345c-2.374,0-4.445-1.322-5.546-3.283-.534-.952-.839-2.055-.839-3.23s.305-2.278.839-3.23c1.1-1.961,3.172-3.283,5.546-3.283h6.96c1.746,0,3.167-1.449,3.167-3.23s-1.42-3.23-3.167-3.23h-13.345V.231h13.345c2.374,0,4.445,1.322,5.546,3.283.534.952.839,2.055.839,3.23s-.305,2.278-.839,3.23c-.268.477-.593.916-.967,1.308-1.159,1.218-2.782,1.975-4.579,1.975h-6.96c-1.746,0-3.167,1.449-3.167,3.23s1.42,3.23,3.167,3.23h13.345Z"/><path class="cls-1" d="M213.215,23v-3.305h4.611v3.305h-4.611Z"/><path class="cls-1" d="M240,6.744v9.722c0,1.285-.362,2.484-.986,3.494-.211.343-.452.664-.721.959-.044.05-.09.098-.136.145-.155.161-.317.313-.487.455-.032.029-.065.056-.1.083-.045.037-.091.073-.136.108-.051.039-.104.077-.157.114-.053.039-.107.076-.161.112-.055.036-.111.073-.167.107-.056.035-.111.069-.168.102-.058.034-.117.067-.176.099-.044.024-.088.047-.133.071-.194.1-.394.189-.601.269-.049.02-.099.037-.15.055-.142.052-.285.097-.431.137-.066.019-.132.035-.199.052-.065.016-.131.031-.198.044-.026.006-.05.01-.076.016-.112.022-.225.04-.337.055-.003.001-.007.001-.01.001-.135.019-.271.033-.409.042-.14.01-.283.014-.426.014h-6.233c-1.145,0-2.218-.311-3.145-.854-.058-.033-.115-.067-.171-.104-.832-.522-1.539-1.236-2.062-2.083-.053-.087-.105-.175-.153-.264-.53-.953-.832-2.054-.832-3.23V6.744c0-1.163.296-2.256.816-3.202.001-.002.003-.006.005-.008.053-.097.107-.19.165-.284.558-.903,1.325-1.657,2.232-2.186.771-.453,1.644-.744,2.575-.827.032-.003.065-.006.099-.008.156-.013.312-.019.471-.019s.315.006.471.019h5.292c.155-.013.312-.019.471-.019s.315.006.471.019c.033.002.066.004.099.008.931.084,1.804.374,2.575.827.907.529,1.674,1.282,2.232,2.186.058.094.113.187.165.284.001.002.003.006.005.008.52.946.816,2.039.816,3.202ZM233.637,19.695c1.734,0,3.145-1.449,3.145-3.23V6.744c0-1.642-1.2-3.003-2.75-3.202-.022-.003-.046-.006-.068-.008h-.655c-.022.002-.046.004-.068.008h-5.442c-.022-.003-.046-.006-.069-.008h-.654c-.022.002-.046.004-.069.008-1.549.199-2.749,1.56-2.749,3.202v9.722c0,1.781,1.41,3.23,3.145,3.23h6.233Z"/></svg>